<svg id="Camada_1" data-name="Camada 1" xmlns="http://www.w3.org/2000/svg" viewBox="0 0 1080 1080"><defs><style>.cls-1{fill:#929496;}.cls-2{fill:#e6e6e4;}</style></defs><title>1 Completo ILP-5</title><polygon class="cls-1" points="540 0 0 0 0 540 0 1080 540 1080 1080 1080 1080 540 1080 0 540 0"/><path class="cls-2" d="M714,529.16A5.53,5.53,0,0,1,712.9,532a6.07,6.07,0,0,1-2.41,1.84,8.53,8.53,0,0,1-3.43.64,9.38,9.38,0,0,1-3.15-.51,7.23,7.23,0,0,1-2.49-1.51,6.88,6.88,0,0,1-1.66-2.41,9.05,9.05,0,0,1,0-6.43,7,7,0,0,1,1.66-2.41,7.26,7.26,0,0,1,2.49-1.52,9.38,9.38,0,0,1,3.15-.52,8.61,8.61,0,0,1,3.44.65,6.16,6.16,0,0,1,2.43,1.85,5.77,5.77,0,0,1,1.14,2.88H712a4.69,4.69,0,0,0-1-1.82,4.43,4.43,0,0,0-1.66-1.15,5.81,5.81,0,0,0-2.22-.4,6.08,6.08,0,0,0-2.83.65,5,5,0,0,0-2,1.91,5.91,5.91,0,0,0-.76,3.1,5.84,5.84,0,0,0,.76,3.08,5,5,0,0,0,2,1.9,6.2,6.2,0,0,0,2.83.65,5.83,5.83,0,0,0,2.2-.39,4.42,4.42,0,0,0,2.66-2.92Z"/><path class="cls-2" d="M723.58,534.48a6.78,6.78,0,0,1-3.09-.71,5.38,5.38,0,0,1-2.22-2,5.87,5.87,0,0,1-.83-3.17,6,6,0,0,1,.83-3.21,5.33,5.33,0,0,1,2.22-2,6.78,6.78,0,0,1,3.09-.71,6.64,6.64,0,0,1,3.07.71,5.47,5.47,0,0,1,2.2,2,6,6,0,0,1,.82,3.21,5.87,5.87,0,0,1-.82,3.17,5.51,5.51,0,0,1-2.2,2A6.64,6.64,0,0,1,723.58,534.48Zm0-1.92a4.13,4.13,0,0,0,1.91-.45,3.61,3.61,0,0,0,1.41-1.36,4.71,4.71,0,0,0,0-4.38,3.73,3.73,0,0,0-1.41-1.38,3.92,3.92,0,0,0-1.91-.48,4,4,0,0,0-1.94.47,3.64,3.64,0,0,0-1.44,1.37,4.79,4.79,0,0,0,0,4.4,3.55,3.55,0,0,0,1.44,1.36A4.3,4.3,0,0,0,723.58,532.56Z"/><path class="cls-2" d="M733.3,522.84h2.21v11.39H733.3Zm6.59-.23a5.29,5.29,0,0,1,1.74.28,3.61,3.61,0,0,1,1.33.81,3.8,3.8,0,0,1,.87,1.32,5.1,5.1,0,0,1,.31,1.82v7.39h-2.22v-6.92a2.83,2.83,0,0,0-.64-2,2.63,2.63,0,0,0-2-.66,3.92,3.92,0,0,0-3.27,1.73,3.76,3.76,0,0,0-.65,1.76l0-1.25a5.37,5.37,0,0,1,.49-1.68,4.85,4.85,0,0,1,1-1.34,4.25,4.25,0,0,1,3.08-1.23Z"/><path class="cls-2" d="M747.86,530.53h2a2.3,2.3,0,0,0,.84,1.49,3.07,3.07,0,0,0,2,.57,3.25,3.25,0,0,0,1.26-.2,1.31,1.31,0,0,0,.87-1.29,1.12,1.12,0,0,0-.28-.8,2.12,2.12,0,0,0-.77-.48c-.34-.12-.74-.24-1.21-.36s-1-.3-1.52-.48a7.14,7.14,0,0,1-1.39-.66,3.1,3.1,0,0,1-1-1,2.47,2.47,0,0,1-.38-1.4,2.91,2.91,0,0,1,.31-1.35,3,3,0,0,1,.89-1.06,4.11,4.11,0,0,1,1.37-.69,6.16,6.16,0,0,1,1.72-.24,4.8,4.8,0,0,1,2.22.47,3.21,3.21,0,0,1,1.37,1.31,4.16,4.16,0,0,1,.49,2h-1.94a1.89,1.89,0,0,0-2.16-1.85,2.54,2.54,0,0,0-1.53.39,1.23,1.23,0,0,0-.53,1.05,1,1,0,0,0,.37.78,3.11,3.11,0,0,0,1,.54q.61.22,1.41.48l1.42.5a5.59,5.59,0,0,1,1.22.62,2.61,2.61,0,0,1,.84.91,2.75,2.75,0,0,1,.31,1.39,3.1,3.1,0,0,1-.5,1.75,3.34,3.34,0,0,1-1.46,1.15,6,6,0,0,1-2.33.41,6.5,6.5,0,0,1-2.09-.3,4.52,4.52,0,0,1-1.45-.77,4.18,4.18,0,0,1-.89-1,3.44,3.44,0,0,1-.42-1A2.19,2.19,0,0,1,747.86,530.53Z"/><path class="cls-2" d="M769.48,528.87l0,.68c0,.2-.09.49-.17.88a8,8,0,0,1-.41,1.27,6,6,0,0,1-.78,1.32,4.1,4.1,0,0,1-1.24,1.05,3.89,3.89,0,0,1-1.85.41,5.74,5.74,0,0,1-1.52-.21,3.88,3.88,0,0,1-1.4-.68,3.4,3.4,0,0,1-1-1.31,4.94,4.94,0,0,1-.39-2.09v-7.35h2.22v6.87a3.26,3.26,0,0,0,.34,1.64,1.91,1.91,0,0,0,1,.85,3.69,3.69,0,0,0,1.38.25,3.4,3.4,0,0,0,2-.57,4,4,0,0,0,1.28-1.41A5.31,5.31,0,0,0,769.48,528.87Zm2.08,5.36h-2.21V522.84h2.21Z"/><path class="cls-2" d="M776,518.28h2.21v16H776Z"/><path class="cls-2" d="M781.46,522.84h7.42v1.92h-7.42Zm2.6-3h2.22v14.4h-2.22Z"/><path class="cls-2" d="M797.66,534.48a6.78,6.78,0,0,1-3.09-.71,5.38,5.38,0,0,1-2.22-2,5.87,5.87,0,0,1-.83-3.17,6,6,0,0,1,.83-3.21,5.33,5.33,0,0,1,2.22-2,6.78,6.78,0,0,1,3.09-.71,6.64,6.64,0,0,1,3.07.71,5.47,5.47,0,0,1,2.2,2,6,6,0,0,1,.82,3.21,5.87,5.87,0,0,1-.82,3.17,5.51,5.51,0,0,1-2.2,2A6.64,6.64,0,0,1,797.66,534.48Zm0-1.92a4.16,4.16,0,0,0,1.91-.45,3.61,3.61,0,0,0,1.41-1.36,4.71,4.71,0,0,0,0-4.38,3.73,3.73,0,0,0-1.41-1.38,4,4,0,0,0-1.91-.48,4,4,0,0,0-1.94.47,3.64,3.64,0,0,0-1.44,1.37,4.79,4.79,0,0,0,0,4.4,3.55,3.55,0,0,0,1.44,1.36A4.3,4.3,0,0,0,797.66,532.56Z"/><path class="cls-2" d="M807.38,522.84h2.21v11.39h-2.21Zm6.09,2a3.68,3.68,0,0,0-2,.54,4.21,4.21,0,0,0-1.32,1.34,5.34,5.34,0,0,0-.66,1.54l0-1.3a7.1,7.1,0,0,1,.14-.73,5.79,5.79,0,0,1,.39-1.12,5.1,5.1,0,0,1,.73-1.18,3.58,3.58,0,0,1,1.14-.92,3.45,3.45,0,0,1,1.64-.37Z"/><path class="cls-2" d="M819.47,518.14v2.35h-2.74v-2.35Zm-2.46,4.7h2.19v11.39H817Z"/><path class="cls-2" d="M828.37,534.46a4.91,4.91,0,0,1-2.67-.76,5.39,5.39,0,0,1-1.93-2.08,6.86,6.86,0,0,1,0-6.14,5.56,5.56,0,0,1,2-2.1,5.26,5.26,0,0,1,2.82-.77,4,4,0,0,1,2.66.8,4.28,4.28,0,0,1,1.35,2.15,10.72,10.72,0,0,1,.39,3,9.13,9.13,0,0,1-.23,1.94,7.14,7.14,0,0,1-.74,1.94,3.89,3.89,0,0,1-3.64,2Zm.62-1.92a3.89,3.89,0,0,0,2.06-.52,3.39,3.39,0,0,0,1.26-1.44,5.2,5.2,0,0,0,0-4.14A3.32,3.32,0,0,0,831,525a4,4,0,0,0-2-.5,3.43,3.43,0,0,0-2.74,1.13,4.22,4.22,0,0,0-1,2.89,4.34,4.34,0,0,0,.48,2.08,3.46,3.46,0,0,0,1.32,1.41A3.71,3.71,0,0,0,829,532.54Zm3.74-9.7h2.21v11.39h-2c-.06-.56-.11-1-.14-1.44s0-.74,0-1Z"/><path class="cls-2" d="M854.38,530.53h2.1a4.53,4.53,0,0,1-.86,2,4.73,4.73,0,0,1-1.8,1.41,6.25,6.25,0,0,1-2.66.53,6.79,6.79,0,0,1-3.19-.74,5.57,5.57,0,0,1-2.22-2.08,5.92,5.92,0,0,1-.79-3.09,6,6,0,0,1,.77-3.11,5.5,5.5,0,0,1,2.16-2.09,6.51,6.51,0,0,1,3.16-.76,6.18,6.18,0,0,1,3.12.73A4.46,4.46,0,0,1,856,525.5a8,8,0,0,1,.51,3.55h-9.38a4,4,0,0,0,.63,1.82,3.48,3.48,0,0,0,1.36,1.25,4.31,4.31,0,0,0,2,.44,3.73,3.73,0,0,0,2.11-.56A2.6,2.6,0,0,0,854.38,530.53Zm-3.33-6a3.81,3.81,0,0,0-2.47.79,3.71,3.71,0,0,0-1.3,2.06h7a2.84,2.84,0,0,0-1-2.11A3.51,3.51,0,0,0,851.05,524.51Z"/><path class="cls-2" d="M706.83,561.86a9.09,9.09,0,0,1-3.17-.53,6.87,6.87,0,0,1-2.42-1.5,6.59,6.59,0,0,1-1.53-2.39,9.25,9.25,0,0,1,0-6.31,6.92,6.92,0,0,1,1.63-2.46,7.22,7.22,0,0,1,2.51-1.57,8.85,8.85,0,0,1,3.18-.55,8.46,8.46,0,0,1,3.47.66,5.74,5.74,0,0,1,2.37,1.87,5.5,5.5,0,0,1,1.05,2.83h-2a4.67,4.67,0,0,0-1-1.78,4.48,4.48,0,0,0-1.66-1.16,6.37,6.37,0,0,0-5.23.33,5.09,5.09,0,0,0-2,2,6.28,6.28,0,0,0-.69,3,6.37,6.37,0,0,0,.63,2.91,4.38,4.38,0,0,0,1.84,1.92,6,6,0,0,0,3,.69,5.66,5.66,0,0,0,2.37-.47,4.24,4.24,0,0,0,1.68-1.32,5.13,5.13,0,0,0,.9-2l1.14-.14a7,7,0,0,1-2,4.46A5.9,5.9,0,0,1,706.83,561.86Zm5.64-.25q0-.74.06-1.68c0-.63.08-1.27.14-1.92s.12-1.23.17-1.74h-5.62v-1.78h7.3v7.12Z"/><path class="cls-2" d="M727.55,557.91h2.1a4.46,4.46,0,0,1-.86,2,4.65,4.65,0,0,1-1.8,1.41,6.25,6.25,0,0,1-2.66.53,6.82,6.82,0,0,1-3.19-.74,5.54,5.54,0,0,1-2.21-2.08,5.83,5.83,0,0,1-.8-3.09,6.17,6.17,0,0,1,.77-3.12,5.47,5.47,0,0,1,2.16-2.08,6.4,6.4,0,0,1,3.16-.76,6.22,6.22,0,0,1,3.13.73,4.51,4.51,0,0,1,1.87,2.16,8,8,0,0,1,.5,3.55h-9.38a4.25,4.25,0,0,0,.63,1.82,3.59,3.59,0,0,0,1.37,1.25,4.3,4.3,0,0,0,2,.44,3.79,3.79,0,0,0,2.11-.56A2.6,2.6,0,0,0,727.55,557.91Zm-3.33-6a3.81,3.81,0,0,0-2.46.78,3.72,3.72,0,0,0-1.3,2.07h7a2.81,2.81,0,0,0-1-2.11A3.44,3.44,0,0,0,724.22,551.89Z"/><path class="cls-2" d="M732.89,557.91h2a2.26,2.26,0,0,0,.84,1.48,3.12,3.12,0,0,0,2,.57,3.25,3.25,0,0,0,1.25-.19,1.41,1.41,0,0,0,.67-.53,1.46,1.46,0,0,0,.2-.76,1.16,1.16,0,0,0-.27-.8,1.92,1.92,0,0,0-.78-.48c-.33-.12-.74-.24-1.21-.36s-1-.3-1.52-.48a7.14,7.14,0,0,1-1.39-.66,3.2,3.2,0,0,1-1-1,2.56,2.56,0,0,1-.38-1.41,2.9,2.9,0,0,1,.31-1.34,3,3,0,0,1,.89-1.06,4.2,4.2,0,0,1,1.37-.69,5.86,5.86,0,0,1,1.72-.24,4.87,4.87,0,0,1,2.23.47,3.19,3.19,0,0,1,1.36,1.31,4.16,4.16,0,0,1,.5,2h-1.94a1.91,1.91,0,0,0-2.17-1.84,2.62,2.62,0,0,0-1.53.38,1.24,1.24,0,0,0-.52,1.05,1,1,0,0,0,.36.79,3.11,3.11,0,0,0,1,.54c.41.15.88.31,1.42.48s1,.33,1.41.5a5.79,5.79,0,0,1,1.22.61,2.77,2.77,0,0,1,.85.92,2.86,2.86,0,0,1,.3,1.39,3,3,0,0,1-.5,1.74,3.24,3.24,0,0,1-1.46,1.16,6,6,0,0,1-2.33.41,6.43,6.43,0,0,1-2.08-.3,4.43,4.43,0,0,1-1.45-.78,3.78,3.78,0,0,1-.89-1,3,3,0,0,1-.42-1A2.46,2.46,0,0,1,732.89,557.91Z"/><path class="cls-2" d="M745,550.22h7.41v1.92H745Zm2.6-3h2.21v14.4h-2.21Z"/><path class="cls-2" d="M760.34,561.83a4.94,4.94,0,0,1-2.67-.75,5.41,5.41,0,0,1-1.93-2.09,6.34,6.34,0,0,1-.72-3.06,6.25,6.25,0,0,1,.73-3.07,5.54,5.54,0,0,1,2-2.1,5.28,5.28,0,0,1,2.82-.77,4.07,4.07,0,0,1,2.67.8,4.24,4.24,0,0,1,1.35,2.15,11.06,11.06,0,0,1,.38,3,9,9,0,0,1-.22,1.93,6.92,6.92,0,0,1-.75,1.94,3.85,3.85,0,0,1-3.63,2Zm2.39-13.94a2.6,2.6,0,0,1-1.08-.21,4.92,4.92,0,0,1-.86-.52,6.13,6.13,0,0,0-.79-.5,1.87,1.87,0,0,0-.9-.2,1,1,0,0,0-.7.22,1.41,1.41,0,0,0-.37.56,5.78,5.78,0,0,0-.18.65h-1.71a4.62,4.62,0,0,1,.43-1.55,3,3,0,0,1,.91-1.13,2.3,2.3,0,0,1,1.4-.42,2.77,2.77,0,0,1,1.1.21,3.93,3.93,0,0,1,.9.5,8.62,8.62,0,0,0,.79.51,1.54,1.54,0,0,0,.81.22,1,1,0,0,0,.71-.24,1.52,1.52,0,0,0,.37-.58,5.12,5.12,0,0,0,.2-.64h1.71a5.47,5.47,0,0,1-.45,1.55,2.94,2.94,0,0,1-.91,1.14A2.24,2.24,0,0,1,762.73,547.89Zm-1.78,12a3.83,3.83,0,0,0,2.07-.53,3.34,3.34,0,0,0,1.25-1.43,5.28,5.28,0,0,0,0-4.15,3.25,3.25,0,0,0-1.27-1.4,3.9,3.9,0,0,0-2-.5,3.46,3.46,0,0,0-2.74,1.13,4.25,4.25,0,0,0-1,2.89,4.34,4.34,0,0,0,.48,2.08,3.59,3.59,0,0,0,1.32,1.41A3.77,3.77,0,0,0,761,559.92Zm3.74-9.7h2.22v11.39h-2c-.07-.57-.11-1.05-.14-1.44s0-.75,0-1Z"/><path class="cls-2" d="M776.67,561.86a6.78,6.78,0,0,1-3.09-.71,5.38,5.38,0,0,1-2.22-2,5.87,5.87,0,0,1-.83-3.17,6,6,0,0,1,.83-3.21,5.33,5.33,0,0,1,2.22-2,6.78,6.78,0,0,1,3.09-.71,6.64,6.64,0,0,1,3.07.71,5.47,5.47,0,0,1,2.2,2,6,6,0,0,1,.82,3.21,5.87,5.87,0,0,1-.82,3.17,5.51,5.51,0,0,1-2.2,2A6.64,6.64,0,0,1,776.67,561.86Zm0-1.92a4.05,4.05,0,0,0,1.91-.46,3.51,3.51,0,0,0,1.41-1.35,4.71,4.71,0,0,0,0-4.38,3.73,3.73,0,0,0-1.41-1.38,4,4,0,0,0-1.91-.48,4.11,4.11,0,0,0-1.94.46,3.78,3.78,0,0,0-1.44,1.37,4.81,4.81,0,0,0,0,4.41,3.46,3.46,0,0,0,1.44,1.35A4.18,4.18,0,0,0,776.67,559.94Z"/><path class="cls-2" d="M807.38,556.54a5.7,5.7,0,0,1-1.14,2.84,6.11,6.11,0,0,1-2.42,1.84,8.69,8.69,0,0,1-3.42.64,9.13,9.13,0,0,1-3.15-.52,7.1,7.1,0,0,1-2.5-1.5,6.81,6.81,0,0,1-1.65-2.41,8.91,8.91,0,0,1,0-6.43,6.72,6.72,0,0,1,1.65-2.41,7.3,7.3,0,0,1,2.5-1.52,9.13,9.13,0,0,1,3.15-.52,8.4,8.4,0,0,1,3.43.65,6,6,0,0,1,2.43,1.85,5.56,5.56,0,0,1,1.14,2.88h-2.12a4.67,4.67,0,0,0-1-1.82,4.6,4.6,0,0,0-1.67-1.16,5.92,5.92,0,0,0-2.21-.39,6,6,0,0,0-2.83.65,5,5,0,0,0-2,1.91,5.9,5.9,0,0,0-.77,3.09,5.79,5.79,0,0,0,.77,3.08,5,5,0,0,0,2,1.91,6.17,6.17,0,0,0,2.83.65,5.87,5.87,0,0,0,2.2-.39,4.34,4.34,0,0,0,1.65-1.13,4.57,4.57,0,0,0,1-1.79Z"/><path class="cls-2" d="M816.92,561.86a6.83,6.83,0,0,1-3.1-.71,5.5,5.5,0,0,1-2.22-2,5.87,5.87,0,0,1-.82-3.17,6,6,0,0,1,.82-3.21,5.46,5.46,0,0,1,2.22-2,6.83,6.83,0,0,1,3.1-.71,6.7,6.7,0,0,1,3.07.71,5.47,5.47,0,0,1,2.2,2A6.08,6.08,0,0,1,823,556a6,6,0,0,1-.82,3.17,5.51,5.51,0,0,1-2.2,2A6.7,6.7,0,0,1,816.92,561.86Zm0-1.92a4,4,0,0,0,1.9-.46,3.47,3.47,0,0,0,1.42-1.35,4.79,4.79,0,0,0,0-4.38,3.69,3.69,0,0,0-1.42-1.38,3.89,3.89,0,0,0-1.9-.48,4.11,4.11,0,0,0-1.94.46,3.71,3.71,0,0,0-1.44,1.37,4.73,4.73,0,0,0,0,4.41,3.4,3.4,0,0,0,1.44,1.35A4.18,4.18,0,0,0,816.92,559.94Z"/><path class="cls-2" d="M826.63,550.22h2.22v11.39h-2.22Zm6.6-.23a4.94,4.94,0,0,1,1.73.28,3.65,3.65,0,0,1,1.34.81,3.56,3.56,0,0,1,.86,1.32,4.84,4.84,0,0,1,.31,1.81v7.4h-2.21v-6.92a2.81,2.81,0,0,0-.64-2,2.66,2.66,0,0,0-2-.66,3.89,3.89,0,0,0-1.89.47,3.9,3.9,0,0,0-2,3l0-1.25a5.12,5.12,0,0,1,.49-1.68,4.84,4.84,0,0,1,1-1.35,4.4,4.4,0,0,1,1.37-.9A4.45,4.45,0,0,1,833.23,550Z"/><path class="cls-2" d="M840.89,550.22h7.42v1.92h-7.42Zm2.61-3h2.21v14.4H843.5Z"/><path class="cls-2" d="M856.27,561.83a5,5,0,0,1-2.67-.75,5.49,5.49,0,0,1-1.93-2.09,6.46,6.46,0,0,1-.71-3.06,6.25,6.25,0,0,1,.73-3.07,5.46,5.46,0,0,1,2-2.1,5.28,5.28,0,0,1,2.82-.77,4.07,4.07,0,0,1,2.67.8,4.22,4.22,0,0,1,1.34,2.15,10.67,10.67,0,0,1,.39,3,9,9,0,0,1-.23,1.93,6.9,6.9,0,0,1-.74,1.94,3.85,3.85,0,0,1-3.64,2Zm.62-1.91a3.78,3.78,0,0,0,2.06-.53,3.3,3.3,0,0,0,1.26-1.43,5.28,5.28,0,0,0,0-4.15,3.25,3.25,0,0,0-1.27-1.4,4,4,0,0,0-2-.5,3.44,3.44,0,0,0-2.74,1.13,4.25,4.25,0,0,0-1,2.89,4.34,4.34,0,0,0,.48,2.08,3.59,3.59,0,0,0,1.32,1.41A3.71,3.71,0,0,0,856.89,559.92Zm-1-12,2.65-3.65h2.9l-3.54,3.65Zm4.77,2.33h2.21v11.39h-2c-.06-.57-.1-1.05-.13-1.44s0-.75,0-1Z"/><path class="cls-2" d="M869.44,545.66v13.46c0,.33,0,.75-.07,1.24s-.09.91-.12,1.25h-2v-16Zm4.35,16.17a3.87,3.87,0,0,1-3.64-2,6.9,6.9,0,0,1-.74-1.94,9,9,0,0,1-.23-1.93,12,12,0,0,1,.22-2.31,6,6,0,0,1,.72-1.89,3.34,3.34,0,0,1,1.4-1.28,5.48,5.48,0,0,1,5,.31,5.34,5.34,0,0,1,1.89,2.1,7,7,0,0,1,0,6.13,5.37,5.37,0,0,1-1.91,2.09A5,5,0,0,1,873.79,561.83Zm-.63-1.91a3.65,3.65,0,0,0,1.93-.5,3.54,3.54,0,0,0,1.3-1.41,4.34,4.34,0,0,0,.48-2.08,4.25,4.25,0,0,0-1-2.89,3.42,3.42,0,0,0-2.74-1.13,4,4,0,0,0-2,.5,3.17,3.17,0,0,0-1.26,1.4,5,5,0,0,0-.42,2.12,4.82,4.82,0,0,0,.42,2,3.34,3.34,0,0,0,1.25,1.43A3.79,3.79,0,0,0,873.16,559.92Z"/><path class="cls-2" d="M885.38,545.52v2.35h-2.73v-2.35Zm-2.46,4.7h2.19v11.39h-2.19Z"/><path class="cls-2" d="M889.79,545.66H892v16h-2.21Z"/><path class="cls-2" d="M362.7,488.57h28V591.43h-28Z"/><path class="cls-2" d="M438.73,488.57v80.66H516.2v22.2H410.62V488.57Z"/><path class="cls-2" d="M553.89,560.45V539.52h58.94q7,0,11.42-3.43t4.4-10.47q0-7.18-4.4-10.54t-11.42-3.35H556.45v79.7H528.34V488.57h81a85.83,85.83,0,0,1,18.53,1.91,44.33,44.33,0,0,1,15.09,6.23A29.57,29.57,0,0,1,653,508.06q3.6,7,3.6,17.56T653,542.8a26.53,26.53,0,0,1-10.06,10.62,45.65,45.65,0,0,1-15.09,5.43,102.23,102.23,0,0,1-18.53,1.6Z"/><path class="cls-2" d="M246.47,519.34l1.49,3.34H244.3l-45.54,0-10.76,24h40c21.31,0,38.64-16.1,38.64-35.89V474.84H226.52Z"/><path class="cls-2" d="M285.19,533.39c-21.31,0-38.64,16.1-38.64,35.88v35.89h40.11l-19.94-44.5-1.5-3.34h3.66l45.54,0,10.76-24Z"/><circle class="cls-2" cx="295.92" cy="504.11" r="13.55"/><circle class="cls-2" cx="217.27" cy="575.89" r="13.55"/></svg>