<svg id="Camada_1" data-name="Camada 1" xmlns="http://www.w3.org/2000/svg" viewBox="0 0 1080 1080"><defs><style>.cls-1{fill:#25415c;}.cls-2{fill:#e6e6e4;}</style></defs><title>2 Sem Tagline ILP-8</title><polygon class="cls-1" points="540 0 0 0 0 540 0 1080 540 1080 1080 1080 1080 540 1080 0 540 0"/><path class="cls-2" d="M467.09,477.08h34.2V602.92h-34.2Z"/><path class="cls-2" d="M560.1,477.08v98.68h94.77v27.16H525.71V477.08Z"/><path class="cls-2" d="M701,565v-25.6h72.1q8.61,0,14-4.2t5.37-12.8q0-8.79-5.37-12.89t-14-4.11h-69v97.51h-34.4V477.08H768.8a104.52,104.52,0,0,1,22.66,2.34A54.4,54.4,0,0,1,809.93,487a36.27,36.27,0,0,1,12.31,13.88q4.39,8.59,4.39,21.49,0,12.71-4.39,21a32.37,32.37,0,0,1-12.31,13,55.76,55.76,0,0,1-18.47,6.65,124.7,124.7,0,0,1-22.66,2Z"/><path class="cls-2" d="M324.89,514.73l1.83,4.08h-4.48l-55.71,0-13.16,29.33h48.92c26.07,0,47.27-19.7,47.27-43.9V460.28H300.49Z"/><path class="cls-2" d="M372.27,531.91c-26.07,0-47.28,19.7-47.28,43.9v43.91h49.08l-24.4-54.45-1.84-4.08h4.48l55.72,0,13.16-29.33Z"/><circle class="cls-2" cx="385.39" cy="496.1" r="16.58"/><circle class="cls-2" cx="289.18" cy="583.9" r="16.58"/></svg>