<svg id="Camada_1" data-name="Camada 1" xmlns="http://www.w3.org/2000/svg" xmlns:xlink="http://www.w3.org/1999/xlink" viewBox="0 0 1080 1080"><defs><style>.cls-1{fill:none;}.cls-2{fill:#e6e6e4;}.cls-3{fill:#4b4f54;}.cls-4{clip-path:url(#clip-path);}.cls-5{clip-path:url(#clip-path-2);}.cls-6{fill:#d7d8d8;}</style><clipPath id="clip-path"><polygon class="cls-1" points="-590 1237.55 -1130 1237.55 -1130 2317.55 -590 2317.55 -50 2317.55 -50 1237.55 -590 1237.55"/></clipPath><clipPath id="clip-path-2"><polygon class="cls-1" points="540 1237.55 0 1237.55 0 2317.55 540 2317.55 1080 2317.55 1080 1237.55 540 1237.55"/></clipPath></defs><title>3 Símbolo ILP-18</title><polygon class="cls-2" points="540 0 0 0 0 540 0 1080 540 1080 1080 1080 1080 540 1080 0 540 0"/><path class="cls-3" d="M507.69,474.08l4.78,10.66H500.79l-145.32-.13-34.33,76.49H448.73c68,0,123.32-51.36,123.32-114.5V332.09h-128Z"/><path class="cls-3" d="M631.27,518.91c-68,0-123.32,51.36-123.32,114.5v114.5H636l-63.64-142-4.78-10.66h11.68l145.32.13,34.33-76.49Z"/><circle class="cls-3" cx="665.49" cy="425.5" r="43.23"/><circle class="cls-3" cx="414.55" cy="654.5" r="43.23"/><g class="cls-5"><path class="cls-6" d="M350.74,1498.62,368.83,1539l-44.25,0-550.32-.48-130,289.66H127.46c257.5,0,467-194.52,467-433.63V960.89H109.71Z"/></g></svg>