<svg id="Camada_1" data-name="Camada 1" xmlns="http://www.w3.org/2000/svg" xmlns:xlink="http://www.w3.org/1999/xlink" viewBox="0 0 1080 1080"><defs><style>.cls-1{fill:none;}.cls-2{clip-path:url(#clip-path);}.cls-3{fill:#929496;}.cls-4{fill:#e6e6e4;}</style><clipPath id="clip-path"><polygon class="cls-1" points="-590 1237.55 -1130 1237.55 -1130 2317.55 -590 2317.55 -50 2317.55 -50 1237.55 -590 1237.55"/></clipPath></defs><title>3 Símbolo ILP-19</title><polygon class="cls-3" points="540 0 0 0 0 540 0 1080 540 1080 1080 1080 1080 540 1080 0 540 0"/><path class="cls-4" d="M507.69,474.08l4.78,10.66H500.79l-145.32-.13-34.33,76.49H448.73c68,0,123.32-51.36,123.32-114.5V332.09h-128Z"/><path class="cls-4" d="M631.27,518.91c-68,0-123.32,51.36-123.32,114.5v114.5H636l-63.64-142-4.78-10.66h11.68l145.32.13,34.33-76.49Z"/><circle class="cls-4" cx="665.49" cy="425.5" r="43.23"/><circle class="cls-4" cx="414.55" cy="654.5" r="43.23"/></svg>