<svg id="Camada_1" data-name="Camada 1" xmlns="http://www.w3.org/2000/svg" viewBox="0 0 1080 1080"><defs><style>.cls-1{fill:#fff;}</style></defs><title>3 Símbolo ILP-21</title><polygon points="540 0 0 0 0 540 0 1080 540 1080 1080 1080 1080 540 1080 0 540 0"/><path class="cls-1" d="M507.69,474.08l4.78,10.66H500.79l-145.32-.13-34.33,76.49H448.73c68,0,123.32-51.36,123.32-114.5V332.09h-128Z"/><path class="cls-1" d="M631.27,518.91c-68,0-123.32,51.36-123.32,114.5v114.5H636l-63.64-142-4.78-10.66h11.68l145.32.13,34.33-76.49Z"/><circle class="cls-1" cx="665.49" cy="425.5" r="43.23"/><circle class="cls-1" cx="414.55" cy="654.5" r="43.23"/></svg>