<svg id="Camada_1" data-name="Camada 1" xmlns="http://www.w3.org/2000/svg" xmlns:xlink="http://www.w3.org/1999/xlink" viewBox="0 0 1080 1080"><defs><style>.cls-1{fill:none;}.cls-2{clip-path:url(#clip-path);}.cls-3{fill:#25415c;}.cls-4{fill:#e6e6e4;}.cls-5{clip-path:url(#clip-path-2);}.cls-6{fill:#929496;}.cls-7{clip-path:url(#clip-path-3);}.cls-8{fill:#d7d8d8;}</style><clipPath id="clip-path"><polygon class="cls-1" points="-590 0 -1130 0 -1130 1080 -590 1080 -50 1080 -50 0 -590 0"/></clipPath><clipPath id="clip-path-2"><polygon class="cls-1" points="540 0 0 0 0 1080 540 1080 1080 1080 1080 0 540 0"/></clipPath><clipPath id="clip-path-3"><polygon class="cls-1" points="1670 0 1130 0 1130 1080 1670 1080 2210 1080 2210 0 1670 0"/></clipPath></defs><title>4 Grafismos ILP-24</title><g class="cls-2"><path class="cls-3" d="M-311.28,430.84c-257.5,0-467,194.52-467,433.62v433.63h484.74l-241-537.73L-552.66,720l44.25,0,550.33.48,130-289.66Z"/></g><polygon class="cls-4" points="540 0 0 0 0 1080 540 1080 1080 1080 1080 0 540 0"/><g class="cls-5"><path class="cls-6" d="M350.74,261.07l18.09,40.38-44.25,0-550.32-.48-130,289.66H127.46c257.5,0,467-194.52,467-433.63V-276.66H109.71Z"/><path class="cls-6" d="M818.72,430.84c-257.5,0-467,194.52-467,433.62v433.63H836.47l-241-537.73L577.34,720l44.25,0,550.33.48,130-289.66Z"/><circle class="cls-6" cx="948.33" cy="77.08" r="163.73"/><circle class="cls-6" cx="-2.02" cy="944.34" r="163.73"/></g><g class="cls-7"><path class="cls-8" d="M1480.74,261.07l18.09,40.38-44.25,0-550.32-.48-130,289.66h483.21c257.5,0,467-194.52,467-433.63V-276.66H1239.71Z"/><circle class="cls-8" cx="1127.98" cy="944.34" r="163.73"/></g></svg>